<?xml version="1.0" encoding="utf-8"?>
<!-- Generator: Adobe Illustrator 19.1.0, SVG Export Plug-In . SVG Version: 6.00 Build 0)  -->
<svg version="1.1" id="Layer_1" xmlns="http://www.w3.org/2000/svg" xmlns:xlink="http://www.w3.org/1999/xlink" x="0px" y="0px"
	 width="740.5px" height="740.5px" viewBox="64 26.5 740.5 740.5" style="enable-background:new 64 26.5 740.5 740.5;"
	 xml:space="preserve">
<style type="text/css">
	.st0{font-family:'MyriadPro-Regular';}
	.st1{font-size:20px;}
	.st2{fill:none;stroke:#231F20;stroke-miterlimit:10;}
	.st3{fill:#231F20;}
	.st4{fill:none;stroke:#231F20;stroke-width:1.6895;stroke-miterlimit:10;}
	.st5{fill:none;stroke:#231F20;stroke-miterlimit:10;stroke-dasharray:2.9995,2.9995;}
	.st6{fill:none;stroke:#231F20;stroke-width:1.1391;stroke-miterlimit:10;}
	.st7{fill:none;stroke:#231F20;stroke-width:1.1391;stroke-miterlimit:10;stroke-dasharray:3.4065,3.4065;}
	.st8{font-family:'MyriadPro-It';}
	.st9{font-size:12px;}
	.st10{fill:none;stroke:#000000;stroke-miterlimit:10;}
</style>
<text transform="matrix(1 0 0 1 281.9875 180.1918)" class="st0 st1">Action</text>
<text transform="matrix(1 0 0 1 273.0578 263.5629)" class="st0 st1">Mapping</text>
<text transform="matrix(1 0 0 1 382.7439 356.2876)" class="st0 st1">Storage/Recall</text>
<text transform="matrix(1 0 0 1 502.8645 224.5795)" class="st0 st1">Composition</text>
<text transform="matrix(1 0 0 1 132.8176 411.1107)" class="st0 st1">Dynamic Scaling</text>
<text transform="matrix(1 0 0 1 377.6965 603.4857)" class="st0 st1">Sound Processing</text>
<text transform="matrix(1 0 0 1 375.8571 514.9799)" class="st0 st1">Sound Generation</text>
<text transform="matrix(1 0 0 1 416.3528 676.7543)" class="st0 st1">Output</text>
<g>
	<g>
		<line class="st2" x1="310.8" y1="203.4" x2="310.8" y2="238.1"/>
		<g>
			<path class="st3" d="M310.8,244.2c-1.1-2.8-2.9-6.4-4.8-8.5l4.8,1.7l4.8-1.7C313.6,237.8,311.8,241.3,310.8,244.2z"/>
		</g>
	</g>
</g>
<g>
	<g>
		<line class="st2" x1="443" y1="372.8" x2="443" y2="486.1"/>
		<g>
			<path class="st3" d="M443,492.1c-1.1-2.8-2.9-6.4-4.8-8.5l4.8,1.7l4.8-1.7C445.9,485.8,444.1,489.3,443,492.1z"/>
		</g>
	</g>
</g>
<g>
	<g>
		<line class="st2" x1="443" y1="531.1" x2="443" y2="580.1"/>
		<g>
			<path class="st3" d="M443,586.1c-1.1-2.8-2.9-6.4-4.8-8.5l4.8,1.7l4.8-1.7C445.9,579.8,444.1,583.3,443,586.1z"/>
		</g>
	</g>
</g>
<g>
	<g>
		<line class="st2" x1="443" y1="618.1" x2="443" y2="651.1"/>
		<g>
			<path class="st3" d="M443,657.1c-1.1-2.8-2.9-6.4-4.8-8.5l4.8,1.7l4.8-1.7C445.9,650.8,444.1,654.3,443,657.1z"/>
		</g>
	</g>
</g>
<g>
	<g>
		<line class="st2" x1="310.8" y1="277.6" x2="215.3" y2="385.2"/>
		<g>
			<path class="st3" d="M211.3,389.7c1.1-2.8,2.1-6.7,2.1-9.5l2.4,4.4l4.7,1.9C217.6,386.9,213.9,388.3,211.3,389.7z"/>
		</g>
	</g>
</g>
<g>
	<g>
		<line class="st2" x1="315.6" y1="277.6" x2="425.8" y2="331"/>
		<g>
			<path class="st3" d="M431.3,333.7c-3-0.3-7-0.2-9.8,0.5l3.6-3.5l0.5-5C426.8,328.3,429.2,331.5,431.3,333.7z"/>
		</g>
	</g>
</g>
<g>
	<g>
		<line class="st2" x1="238.3" y1="440.7" x2="361.7" y2="496.6"/>
		<g>
			<path class="st3" d="M367.2,499.1c-3-0.2-7,0-9.7,0.8l3.5-3.6l0.4-5C362.6,493.9,365.1,497,367.2,499.1z"/>
		</g>
	</g>
</g>
<g>
	<g>
		<line class="st2" x1="217.3" y1="451.1" x2="367.7" y2="581.2"/>
		<g>
			<path class="st3" d="M372.3,585.1c-2.8-1.1-6.7-2-9.6-2l4.4-2.5l1.8-4.7C369.3,578.8,370.8,582.5,372.3,585.1z"/>
		</g>
	</g>
</g>
<g>
	<g>
		<line class="st4" x1="555.8" y1="238.1" x2="455.8" y2="329"/>
		<g>
			<path class="st3" d="M451.9,333.7c1-2.9,1.9-6.7,1.8-9.6l2.6,4.4l4.8,1.7C458.2,330.6,454.5,332.1,451.9,333.7z"/>
		</g>
	</g>
</g>
<g>
	<g>
		<line class="st2" x1="418.8" y1="363.9" x2="285.4" y2="400.6"/>
		<g>
			<path class="st3" d="M279.6,402.2c2.5-1.8,5.4-4.4,7-6.9l-0.4,5l2.9,4.1C286.5,403.3,282.6,402.5,279.6,402.2z"/>
		</g>
	</g>
</g>
<g>
	<g>
		<path class="st2" d="M275.3,445.5c0,0,0.5,0.2,1.4,0.6"/>
		<path class="st5" d="M279.4,447.3c21,8.9,116.8,42.5,151.2-65.8"/>
		<path class="st2" d="M431,380c0.1-0.5,0.3-1,0.4-1.4"/>
		<g>
			<path class="st3" d="M433.1,372.8c0.2,3,0.9,6.9,2.1,9.6l-4.1-3l-5.1,0.3C428.5,378.1,431.3,375.2,433.1,372.8z"/>
		</g>
	</g>
</g>
<g>
	<g>
		<path class="st6" d="M451.9,704.5c0,0,0.5,0.3,1.4,0.8"/>
		<path class="st7" d="M456.1,706.7C479.4,718,594.7,762.9,650.3,578c62-206.3,38.9-503.9-67-537.5c-18-5.7-115.6-1.6-124.5,13.3"/>
		<path class="st6" d="M457.9,55.3c-0.3,0.5-0.6,1.1-0.9,1.6"/>
		<g>
			<path class="st3" d="M453.5,63.3c0.8-3.8,1.4-8.9,1.1-12.6l2.9,5.4l4.9,1.8C459.5,58.7,456,61,453.5,63.3z"/>
		</g>
	</g>
</g>
<text transform="matrix(1 0 0 1 459.261 372.8041)" class="st8 st9">(store/recall makes it easy to switch between </text>
<text transform="matrix(1 0 0 1 459.261 387.2046)" class="st8 st9">things,or interpolate between them ; it holds </text>
<text transform="matrix(1 0 0 1 459.261 401.6039)" class="st8 st9">composed material, or types of </text>
<text transform="matrix(1 0 0 1 459.261 416.0044)" class="st8 st9">rules for sculpting, or alogorithms, ... )</text>
<text transform="matrix(1 0 0 1 104.761 195.0824)" class="st8 st9">(real-time:  mouse, keyboard, esplora, gametrak, sequencing, sensor data input, ... )</text>
<text transform="matrix(1 0 0 1 121.0031 423.4857)" class="st8 st9">(changes parameters of the sound chain, </text>
<text transform="matrix(1 0 0 1 121.0031 437.8861)" class="st8 st9">or reinterperets recalled data, or ...)</text>
<text transform="matrix(1 0 0 1 403.0031 525.9799)" class="st8 st9">(samples, synths, ... )</text>
<text transform="matrix(1 0 0 1 362.0031 615.14)" class="st8 st9">(filters, delays, resonance models, ... )</text>
<text transform="matrix(1 0 0 1 388.5945 694.14)" class="st8 st9">(speakers, transducers, ... )</text>
<g>
	<ellipse class="st10" cx="454.6" cy="78.6" rx="11.4" ry="14"/>
	<polyline class="st10" points="454.6,92.6 454.6,141.6 440.2,154.6 440.2,172.6 431.4,176.6 	"/>
	<polyline class="st10" points="454.6,141.6 471.8,156.6 495.8,162.6 495.8,172.6 	"/>
	<polyline class="st10" points="302.3,143.1 318.6,152.1 454.6,111.6 581,197.4 599.3,179.4 	"/>
</g>
<text transform="matrix(1 0 0 1 475.261 236.0824)" class="st8 st9">(non-realtime decision making?)</text>
</svg>
