<?xml version="1.0" encoding="utf-8"?>
<!-- Generator: Adobe Illustrator 15.0.2, SVG Export Plug-In . SVG Version: 6.00 Build 0)  -->
<!DOCTYPE svg PUBLIC "-//W3C//DTD SVG 1.1//EN" "http://www.w3.org/Graphics/SVG/1.1/DTD/svg11.dtd">
<svg version="1.1" id="Layer_1" xmlns="http://www.w3.org/2000/svg" xmlns:xlink="http://www.w3.org/1999/xlink" x="0px" y="0px"
	 width="600px" height="600px" viewBox="0 0 600 600" enable-background="new 0 0 600 600" xml:space="preserve">
<text transform="matrix(1 0 0 1 169.2266 29.0518)" font-family="'MyriadPro-Regular'" font-size="20">Action</text>
<text transform="matrix(1 0 0 1 157.7969 112.4229)" font-family="'MyriadPro-Regular'" font-size="20">Mapping</text>
<text transform="matrix(1 0 0 1 267.4829 205.1479)" font-family="'MyriadPro-Regular'" font-size="20">Storage/Recall</text>
<text transform="matrix(1 0 0 1 340.1035 105.939)" font-family="'MyriadPro-Regular'" font-size="20">Composition</text>
<text transform="matrix(1 0 0 1 17.5566 259.9702)" font-family="'MyriadPro-Regular'" font-size="20">Dynamic Scaling</text>
<text transform="matrix(1 0 0 1 262.4355 452.3457)" font-family="'MyriadPro-Regular'" font-size="20">Sound Processing</text>
<text transform="matrix(1 0 0 1 260.5962 363.8398)" font-family="'MyriadPro-Regular'" font-size="20">Sound Generation</text>
<text transform="matrix(1 0 0 1 301.0918 525.6143)" font-family="'MyriadPro-Regular'" font-size="20">Output</text>
<g>
	<g>
		<line fill="none" stroke="#231F20" stroke-miterlimit="10" x1="195.516" y1="52.309" x2="195.516" y2="87"/>
		<g>
			<path fill="#231F20" d="M195.516,93.035c-1.054-2.84-2.852-6.363-4.756-8.547l4.756,1.72l4.755-1.72
				C198.367,86.671,196.569,90.195,195.516,93.035z"/>
		</g>
	</g>
</g>
<g>
	<g>
		<line fill="none" stroke="#231F20" stroke-miterlimit="10" x1="327.742" y1="221.664" x2="327.742" y2="334.965"/>
		<g>
			<path fill="#231F20" d="M327.742,341c-1.054-2.84-2.852-6.363-4.756-8.547l4.756,1.72l4.755-1.72
				C330.593,334.637,328.795,338.16,327.742,341z"/>
		</g>
	</g>
</g>
<g>
	<g>
		<line fill="none" stroke="#231F20" stroke-miterlimit="10" x1="327.742" y1="380" x2="327.742" y2="428.965"/>
		<g>
			<path fill="#231F20" d="M327.742,435c-1.054-2.84-2.852-6.363-4.756-8.547l4.756,1.72l4.755-1.72
				C330.593,428.637,328.795,432.16,327.742,435z"/>
		</g>
	</g>
</g>
<g>
	<g>
		<line fill="none" stroke="#231F20" stroke-miterlimit="10" x1="327.742" y1="467" x2="327.742" y2="499.965"/>
		<g>
			<path fill="#231F20" d="M327.742,506c-1.054-2.84-2.852-6.363-4.756-8.547l4.756,1.72l4.755-1.72
				C330.593,499.637,328.795,503.16,327.742,506z"/>
		</g>
	</g>
</g>
<g>
	<g>
		<line fill="none" stroke="#231F20" stroke-miterlimit="10" x1="195.516" y1="126.427" x2="100.005" y2="234.085"/>
		<g>
			<path fill="#231F20" d="M96,238.6c1.096-2.824,2.09-6.652,2.115-9.55l2.416,4.443l4.699,1.869
				C102.355,235.731,98.672,237.174,96,238.6z"/>
		</g>
	</g>
</g>
<g>
	<g>
		<line fill="none" stroke="#231F20" stroke-miterlimit="10" x1="200.333" y1="126.427" x2="310.569" y2="179.88"/>
		<g>
			<path fill="#231F20" d="M316,182.514c-3.015-0.291-6.97-0.21-9.766,0.55l3.623-3.528l0.526-5.029
				C311.518,177.172,313.904,180.327,316,182.514z"/>
		</g>
	</g>
</g>
<g>
	<g>
		<line fill="none" stroke="#231F20" stroke-miterlimit="10" x1="123" y1="289.548" x2="246.46" y2="345.509"/>
		<g>
			<path fill="#231F20" d="M251.957,348c-3.021-0.213-6.973-0.029-9.749,0.803l3.53-3.621l0.396-5.041
				C247.338,342.776,249.805,345.869,251.957,348z"/>
		</g>
	</g>
</g>
<g>
	<g>
		<line fill="none" stroke="#231F20" stroke-miterlimit="10" x1="102" y1="300" x2="252.435" y2="430.053"/>
		<g>
			<path fill="#231F20" d="M257,434c-2.837-1.061-6.679-2.004-9.576-1.992l4.412-2.473l1.808-4.723
				C254.05,427.682,255.54,431.347,257,434z"/>
		</g>
	</g>
</g>
<g>
	<g>
		<line fill="none" stroke="#231F20" stroke-miterlimit="10" x1="383.419" y1="126.427" x2="340.51" y2="177.879"/>
		<g>
			<path fill="#231F20" d="M336.645,182.514c1.01-2.856,1.886-6.713,1.822-9.61l2.551,4.367l4.753,1.724
				C342.909,179.453,339.271,181.007,336.645,182.514z"/>
		</g>
	</g>
</g>
<g>
	<g>
		<line fill="none" stroke="#231F20" stroke-miterlimit="10" x1="303.58" y1="212.793" x2="170.152" y2="249.493"/>
		<g>
			<path fill="#231F20" d="M164.333,251.094c2.458-1.769,5.379-4.437,6.98-6.853l-0.397,5.042l2.92,4.128
				C171.225,252.155,167.351,251.355,164.333,251.094z"/>
		</g>
	</g>
</g>
<g>
	<g>
		<path fill="none" stroke="#231F20" stroke-miterlimit="10" d="M160,294.317c0,0,0.468,0.232,1.353,0.637"/>
		<path fill="none" stroke="#231F20" stroke-miterlimit="10" stroke-dasharray="2.9995,2.9995" d="M164.096,296.157
			c20.988,8.873,116.818,42.523,151.189-65.814"/>
		<path fill="none" stroke="#231F20" stroke-miterlimit="10" d="M315.734,228.906c0.147-0.476,0.293-0.954,0.438-1.435"/>
		<g>
			<path fill="#231F20" d="M317.822,221.664c0.188,3.023,0.891,6.916,2.083,9.557l-4.056-3.021l-5.05,0.273
				C313.254,226.932,315.994,224.079,317.822,221.664z"/>
		</g>
	</g>
</g>
<g>
	<g>
		<path fill="none" stroke="#231F20" stroke-miterlimit="10" d="M336.645,556.832c0,0,0.474,0.214,1.377,0.583"/>
		<path fill="none" stroke="#231F20" stroke-miterlimit="10" stroke-dasharray="2.9906,2.9906" d="M340.803,558.5
			c23.304,8.713,138.622,43.369,194.197-99.154c62-159,38.852-388.342-67-414.294c-17.97-4.406-36.804,16.125-45.721,27.62"/>
		<path fill="none" stroke="#231F20" stroke-miterlimit="10" d="M421.363,73.865c-0.314,0.415-0.614,0.815-0.898,1.198"/>
		<g>
			<path fill="#231F20" d="M417,80c0.785-2.926,1.358-6.839,1.07-9.723l2.882,4.156l4.873,1.35
				C423.008,76.461,419.502,78.294,417,80z"/>
		</g>
	</g>
</g>
<text transform="matrix(1 0 0 1 344 221.6641)"><tspan x="0" y="0" font-family="'MyriadPro-It'" font-size="12">(store/recall makes it easy to switch between </tspan><tspan x="0" y="14.4" font-family="'MyriadPro-It'" font-size="12">things,or interpolate between them ; it holds </tspan><tspan x="0" y="28.8" font-family="'MyriadPro-It'" font-size="12">composed material, or types of </tspan><tspan x="0" y="43.2" font-family="'MyriadPro-It'" font-size="12">rules for sculpting, or alogorithms, ... )</tspan></text>
<text transform="matrix(1 0 0 1 102 41.4424)" font-family="'MyriadPro-It'" font-size="12">(gametrak, sequencing, sensor data input, ... )</text>
<text transform="matrix(1 0 0 1 5.7422 272.3457)"><tspan x="0" y="0" font-family="'MyriadPro-It'" font-size="12">(changes parameters of the sound chain, </tspan><tspan x="0" y="14.4" font-family="'MyriadPro-It'" font-size="12">or reinterperets recalled data, or ...)</tspan></text>
<text transform="matrix(1 0 0 1 287.7422 374.8398)" font-family="'MyriadPro-It'" font-size="12">(samples, synths, ... )</text>
<text transform="matrix(1 0 0 1 246.7422 464)" font-family="'MyriadPro-It'" font-size="12">(filters, delays, resonance models, ... )</text>
<text transform="matrix(1 0 0 1 273.3335 543)" font-family="'MyriadPro-It'" font-size="12">(speakers, transducers, ... )</text>
</svg>
